HIERARCHY
ROOT hip
{
  OFFSET 0 0 0
  CHANNELS 6 Xposition Yposition Zposition Zrotation Yrotation Xrotation
  JOINT abdomen
  {
    OFFSET 0 20.6881 -0.73152
    CHANNELS 3 Zrotation Xrotation Yrotation
    JOINT chest
    {
      OFFSET 0 11.7043 -0.48768
      CHANNELS 3 Zrotation Xrotation Yrotation
      JOINT neck
      {
        OFFSET 0 22.1894 -2.19456
        CHANNELS 3 Zrotation Xrotation Yrotation
        JOINT head
        {
          OFFSET -0.24384 7.07133 1.2192
          CHANNELS 3 Zrotation Xrotation Yrotation
          JOINT leftEye
          {
            OFFSET 4.14528 8.04674 8.04672
            CHANNELS 3 Zrotation Xrotation Yrotation
            End Site
            {
              OFFSET 1 0 0
            }
          }
          JOINT rightEye
          {
            OFFSET -3.6576 8.04674 8.04672
            CHANNELS 3 Zrotation Xrotation Yrotation
            End Site
            {
              OFFSET 1 0 0
            }
          }
        }
      }
      JOINT rCollar
      {
        OFFSET -2.68224 19.2634 -4.8768
        CHANNELS 3 Zrotation Xrotation Yrotation
        JOINT rShldr
        {
          OFFSET -8.77824 -1.95073 1.46304
          CHANNELS 3 Zrotation Xrotation Yrotation
          JOINT rForeArm
          {
            OFFSET -28.1742 -1.7115 0.48768
            CHANNELS 3 Zrotation Xrotation Yrotation
            JOINT rHand
            {
              OFFSET -22.5879 0.773209 7.07136
              CHANNELS 3 Zrotation Xrotation Yrotation
              JOINT rThumb1
              {
                OFFSET -1.2192 -0.487915 3.41376
                CHANNELS 3 Zrotation Xrotation Yrotation
                JOINT rThumb2
                {
                  OFFSET -3.37035 -0.52449 3.41376
                  CHANNELS 3 Zrotation Xrotation Yrotation
                  End Site
                  {
                    OFFSET -1.78271 -1.18214 1.43049
                  }
                }
              }
              JOINT rIndex1
              {
                OFFSET -7.75947 0.938293 5.60832
                CHANNELS 3 Zrotation Xrotation Yrotation
                JOINT rIndex2
                {
                  OFFSET -2.54057 -0.884171 1.56538
                  CHANNELS 3 Zrotation Xrotation Yrotation
                  End Site
                  {
                    OFFSET -1.62519 -0.234802 1.16502
                  }
                }
              }
              JOINT rMid1
              {
                OFFSET -8.24714 1.18213 3.41376
                CHANNELS 3 Zrotation Xrotation Yrotation
                JOINT rMid2
                {
                  OFFSET -3.10165 -0.590103 1.0647
                  CHANNELS 3 Zrotation Xrotation Yrotation
                  End Site
                  {
                    OFFSET -2.48547 -0.328903 0.83742
                  }
                }
              }
              JOINT rRing1
              {
                OFFSET -8.82822 0.546677 1.51678
                CHANNELS 3 Zrotation Xrotation Yrotation
                JOINT rRing2
                {
                  OFFSET -2.60934 -0.819778 -0.0198488
                  CHANNELS 3 Zrotation Xrotation Yrotation
                  End Site
                  {
                    OFFSET -2.33842 -0.294052 0.168128
                  }
                }
              }
              JOINT rPinky1
              {
                OFFSET -8.27202 -0.0477905 -0.4584
                CHANNELS 3 Zrotation Xrotation Yrotation
                JOINT rPinky2
                {
                  OFFSET -1.82734 -0.647385 -0.700984
                  CHANNELS 3 Zrotation Xrotation Yrotation
                  End Site
                  {
                    OFFSET -1.69225 -0.51767 -0.607171
                  }
                }
              }
            }
          }
        }
      }
      JOINT lCollar
      {
        OFFSET 2.68224 19.2634 -4.8768
        CHANNELS 3 Zrotation Xrotation Yrotation
        JOINT lShldr
        {
          OFFSET 8.77824 -1.95073 1.46304
          CHANNELS 3 Zrotation Xrotation Yrotation
          JOINT lForeArm
          {
            OFFSET 28.1742 -1.7115 0.48768
            CHANNELS 3 Zrotation Xrotation Yrotation
            JOINT lHand
            {
              OFFSET 22.5879 0.773209 7.07136
              CHANNELS 3 Zrotation Xrotation Yrotation
              JOINT lThumb1
              {
                OFFSET 1.2192 -0.487915 3.41376
                CHANNELS 3 Zrotation Xrotation Yrotation
                JOINT lThumb2
                {
                  OFFSET 3.37035 -0.52449 3.41376
                  CHANNELS 3 Zrotation Xrotation Yrotation
                  End Site
                  {
                    OFFSET 1.78271 -1.18214 1.43049
                  }
                }
              }
              JOINT lIndex1
              {
                OFFSET 7.75947 0.938293 5.60832
                CHANNELS 3 Zrotation Xrotation Yrotation
                JOINT lIndex2
                {
                  OFFSET 2.54057 -0.884171 1.56538
                  CHANNELS 3 Zrotation Xrotation Yrotation
                  End Site
                  {
                    OFFSET 1.62519 -0.234802 1.16502
                  }
                }
              }
              JOINT lMid1
              {
                OFFSET 8.24714 1.18213 3.41376
                CHANNELS 3 Zrotation Xrotation Yrotation
                JOINT lMid2
                {
                  OFFSET 3.10165 -0.590103 1.0647
                  CHANNELS 3 Zrotation Xrotation Yrotation
                  End Site
                  {
                    OFFSET 2.48547 -0.328903 0.83742
                  }
                }
              }
              JOINT lRing1
              {
                OFFSET 8.82822 0.546677 1.51678
                CHANNELS 3 Zrotation Xrotation Yrotation
                JOINT lRing2
                {
                  OFFSET 2.60934 -0.819778 -0.0198488
                  CHANNELS 3 Zrotation Xrotation Yrotation
                  End Site
                  {
                    OFFSET 2.33842 -0.294052 0.168128
                  }
                }
              }
              JOINT lPinky1
              {
                OFFSET 8.27202 -0.0477905 -0.4584
                CHANNELS 3 Zrotation Xrotation Yrotation
                JOINT lPinky2
                {
                  OFFSET 1.82734 -0.647385 -0.700984
                  CHANNELS 3 Zrotation Xrotation Yrotation
                  End Site
                  {
                    OFFSET 1.69225 -0.51767 -0.607171
                  }
                }
              }
            }
          }
        }
      }
    }
  }
  JOINT rButtock
  {
    OFFSET -8.77824 4.35084 1.2192
    CHANNELS 3 Zrotation Xrotation Yrotation
    JOINT rThigh
    {
      OFFSET 0 -1.70687 -2.19456
      CHANNELS 3 Zrotation Xrotation Yrotation
      JOINT rShin
      {
        OFFSET 0 -36.8199 0.73152
        CHANNELS 3 Zrotation Xrotation Yrotation
        JOINT rFoot
        {
          OFFSET 0.73152 -45.1104 -5.12064
          CHANNELS 3 Zrotation Xrotation Yrotation
          End Site
          {
            OFFSET -1.1221 -3.69964 12.103
          }
        }
      }
    }
  }
  JOINT lButtock
  {
    OFFSET 8.77824 4.35084 1.2192
    CHANNELS 3 Zrotation Xrotation Yrotation
    JOINT lThigh
    {
      OFFSET 0 -1.70687 -2.19456
      CHANNELS 3 Zrotation Xrotation Yrotation
      JOINT lShin
      {
        OFFSET 0 -36.8199 0.73152
        CHANNELS 3 Zrotation Xrotation Yrotation
        JOINT lFoot
        {
          OFFSET -0.73152 -45.1104 -5.12064
          CHANNELS 3 Zrotation Xrotation Yrotation
          End Site
          {
            OFFSET 1.1221 -3.69964 12.103
          }
        }
      }
    }
  }
}
MOTION
Frames:	4
Frame Time:	0.00833333
-43.288 85.1237 30.0275 0.0 0.0 0.0 0.43597 -0.0238512 0.01282 0.121274 -0.0396248 0.0210492 -4.38472e-15 1.59028e-15 -1.36664e-16 -1.28837e-14 9.54166e-15 -4.19311e-16 -0.0 0.0 0.0 -0.0 0.0 0.0 -2.08728e-15 2.3528e-16 0.0 -4.22593e-14 4.37947e-15 -3.97569e-16 -7.45542e-13 3.72125e-13 -2.22639e-14 -8.76338e-12 4.95471e-13 -3.08514e-13 -2.06293e-11 1.87695e-12 -6.96541e-13 -3.56417e-11 3.2378e-12 -1.21259e-12 -2.06247e-11 1.87692e-12 -7.09264e-13 7.73091 5.47488 0.417314 -2.06285e-11 1.87712e-12 -6.93361e-13 2.90554 0.965183 0.102902 -2.06245e-11 1.87673e-12 -6.98927e-13 10.2786 0.731801 0.0259123 -2.06344e-11 1.87971e-12 -6.99722e-13 2.22167 -0.733487 -0.20892 -2.08734e-15 2.36639e-16 -9.93923e-17 -4.68255e-14 4.22417e-15 -2.78299e-15 -7.81025e-13 -8.74653e-14 -2.8625e-14 -8.72811e-12 9.52526e-13 -2.95792e-13 -2.06258e-11 1.87029e-12 -7.02903e-13 -3.56067e-11 3.22826e-12 -1.20464e-12 -2.06295e-11 1.87017e-12 -6.93361e-13 -7.73091 5.47488 -0.417314 -2.06263e-11 1.87007e-12 -7.02903e-13 -2.90554 0.965183 -0.102902 -2.06246e-11 1.87007e-12 -6.98132e-13 -10.2786 0.731801 -0.0259123 -2.06207e-11 1.87255e-12 -7.02903e-13 -2.22167 -0.733487 0.20892 -2.03217e-16 0.0 -3.88251e-19 0.651998 -4.71109 -0.0694775 -0.000844144 2.99807 0.00381831 -0.326392 1.72324 0.0697894 2.03217e-16 0.0 3.88251e-19 0.0331573 -2.68025 0.0231597 0.00579485 -0.679752 0.050541 0.296141 3.3702 -0.0966771
-50.8795 82.874 21.6587 175.53 -85.0937 -165.67 -0.0688087 -0.235881 0.976349 1.14364 -4.21716 0.389964 0.0295901 -1.46403 -0.245624 -0.777487 2.55152 -0.615061 -0.0 0.0 0.0 -0.0 0.0 0.0 2.31863e-16 -2.01294e-13 4.26222e-15 17.241 10.4476 -2.39911 -5.40607 -2.74995 8.10107 0.0800702 -6.38763 -0.878655 1.30291e-10 -4.60009e-11 -1.00252e-11 2.25078e-10 -8.29576e-11 -1.45005e-11 1.30296e-10 -4.60008e-11 -1.00358e-11 7.73091 5.47488 0.417314 1.30291e-10 -4.60014e-11 -1.00218e-11 2.90554 0.965183 0.102902 1.30295e-10 -4.60021e-11 -1.00226e-11 10.2786 0.731801 0.0259123 1.30284e-10 -4.59997e-11 -1.0019e-11 2.22167 -0.733487 -0.20892 1.89034e-16 -2.01297e-13 4.07547e-15 -19.3145 1.11859 4.84663 3.27357 -1.33868 -5.26312 -0.0471579 4.82187 -0.669041 -1.91276e-10 2.29336e-10 1.0999e-10 -3.29466e-10 3.99054e-10 1.92928e-10 -1.91282e-10 2.29339e-10 1.10002e-10 -7.73091 5.47488 -0.417314 -1.91276e-10 2.29336e-10 1.09991e-10 -2.90554 0.965183 -0.102902 -1.91278e-10 2.29336e-10 1.09993e-10 -10.2786 0.731801 -0.0259123 -1.91271e-10 2.29339e-10 1.09987e-10 -2.22167 -0.733487 0.20892 -2.03217e-16 0.0 -3.88251e-19 0.92865 -10.1289 3.99642 0.00955543 6.10855 0.0867429 -0.433584 -2.26345 -4.92246 2.03217e-16 0.0 3.88251e-19 -2.64706 -4.47936 -5.89194 0.0161928 1.68513 0.0668855 -0.0616089 -5.5846 -0.0685588
-50.8104 83.0543 21.5301 179.958 -84.9676 -169.931 -0.589081 -0.435572 1.99868 2.29217 -8.63533 0.789316 0.0600537 -3.0205 -0.504251 -1.56209 5.22519 -1.26706 -0.0 0.0 0.0 -0.0 0.0 0.0 3.40512e-15 -4.90302e-13 1.03057e-14 36.4489 21.2795 -5.22277 -10.298 -5.4852 16.745 -0.0563524 -13.2685 -1.86387 2.89031e-10 -1.00846e-10 -1.56925e-11 4.99327e-10 -1.81507e-10 -2.12504e-11 2.89037e-10 -1.00846e-10 -1.57008e-11 7.73091 5.47488 0.417314 2.89032e-10 -1.00847e-10 -1.56889e-11 2.90554 0.965183 0.102902 2.89034e-10 -1.00848e-10 -1.56845e-11 10.2786 0.731801 0.0259123 2.89022e-10 -1.00846e-10 -1.56762e-11 2.22167 -0.733487 -0.20892 3.31655e-15 -4.9031e-13 1.00231e-14 -39.924 2.22608 10.0025 6.46936 -2.71703 -10.8384 0.0272221 9.93202 -1.39435 -3.87772e-10 4.83889e-10 2.2309e-10 -6.67988e-10 8.4219e-10 3.9165e-10 -3.8778e-10 4.83895e-10 2.23104e-10 -7.73091 5.47488 -0.417314 -3.87771e-10 4.83888e-10 2.23092e-10 -2.90554 0.965183 -0.102902 -3.87776e-10 4.83889e-10 2.23091e-10 -10.2786 0.731801 -0.0259123 -3.87767e-10 4.83893e-10 2.23083e-10 -2.22167 -0.733487 0.20892 -2.03217e-16 0.0 -3.88251e-19 2.0941 -15.7782 8.39506 0.0105581 9.50185 0.177837 -1.33462 -6.52521 -10.2944 2.03217e-16 0.0 3.88251e-19 -5.86679 -6.32548 -12.1302 0.0255432 4.22108 0.0818246 -0.423478 -15.009 -0.0268755
-50.8207 83.2186 21.4283 181.943 -84.8985 -171.794 -1.05698 -0.659195 2.90357 3.35318 -12.5701 1.15225 0.0510196 -4.39176 -0.738801 -2.16689 7.651 -1.85992 -0.0 0.0 0.0 -0.0 0.0 0.0 4.87016e-15 -6.04353e-13 1.27867e-14 54.7134 31.104 -8.27411 -13.946 -7.59155 24.5037 -0.376564 -19.1443 -2.77307 4.32131e-10 -1.41756e-10 -2.86824e-11 7.46519e-10 -2.55348e-10 -4.10764e-11 4.32137e-10 -1.41756e-10 -2.8689e-11 7.73091 5.47488 0.417314 4.32131e-10 -1.41758e-10 -2.86788e-11 2.90554 0.965183 0.102902 4.32133e-10 -1.4176e-10 -2.867e-11 10.2786 0.731801 0.0259123 4.3212e-10 -1.41758e-10 -2.86577e-11 2.22167 -0.733487 -0.20892 4.74178e-15 -6.04365e-13 1.24252e-14 -58.5052 3.25987 14.5612 9.09183 -3.88072 -15.8223 0.205682 14.4576 -2.06545 -5.32576e-10 6.84268e-10 3.31377e-10 -9.17184e-10 1.19071e-09 5.81193e-10 -5.32587e-10 6.84277e-10 3.31392e-10 -7.73091 5.47488 -0.417314 -5.32575e-10 6.84267e-10 3.31379e-10 -2.90554 0.965183 -0.102902 -5.32583e-10 6.84268e-10 3.31375e-10 -10.2786 0.731801 -0.0259123 -5.32572e-10 6.84272e-10 3.31366e-10 -2.22167 -0.733487 0.20892 -2.03217e-16 0.0 -3.88251e-19 3.90843 -20.561 12.7662 0.00275729 12.3294 0.257054 -2.73203 -9.91358 -15.1265 2.03217e-16 0.0 3.88251e-19 -9.10833 -7.76185 -17.8367 0.0329023 6.41489 0.100122 -0.750804 -23.4942 -0.0127361
